<svg version="1.1" xmlns="http://www.w3.org/2000/svg" xmlns:xlink="http://www.w3.org/1999/xlink" width="326.79376" height="31.81009" viewBox="0,0,326.79376,31.81009"><g transform="translate(-88.30258,-327.53997)"><g stroke-miterlimit="10"><path d="M393.48526,358.08779c0,0 -7.28518,-0.02386 -19.50756,-0.0639c-56.58248,-0.18534 -218.97654,-0.71727 -254.22758,-0.83273c-13.16,-0.04311 -25.80032,-0.08451 -25.80032,-0.08451c0,0 0.04546,-4.07552 0.07729,-6.9296c0.03282,-2.9425 0.10592,-9.49712 0.15458,-13.8592c0.02763,-2.47711 0.04737,-4.24717 0.04737,-4.24717c0,0 14.762,0.04835 29.57598,0.09688c36.70355,0.12022 194.76387,0.63796 250.45192,0.82037c12.21752,0.04002 19.50756,0.0639 19.50756,0.0639c0,0 -0.03242,2.90636 -0.0723,6.48252c-0.04605,4.12925 -0.10207,9.15152 -0.12964,11.62384c-0.03183,2.85408 -0.07729,6.9296 -0.07729,6.9296z" fill-opacity="0.02353" fill="#ffffff" stroke-opacity="0.45098" stroke="#ffffff" stroke-width="2"/><text transform="translate(120.33782,354.02755) rotate(0.22872) scale(11.43036,0.34113) skewX(-1.3882)" font-size="40" xml:space="preserve" fill-opacity="0.45098" fill="#ffffff" stroke="none" stroke-width="1" font-family="Sans Serif" font-weight="normal" text-anchor="start"><tspan x="0" dy="0">v</tspan></text><text transform="translate(110.66644,342.40074) rotate(0.22552) scale(12.39636,0.34113) skewX(-1.38733)" font-size="40" xml:space="preserve" fill-opacity="0.45098" fill="#ffffff" stroke="none" stroke-width="1" font-family="Sans Serif" font-weight="normal" text-anchor="start"><tspan x="0" dy="0">v</tspan></text><path d="M242.81446,345.16284l-0.02138,-1.13172l2.08833,-0.01159l0.02138,1.13172z" fill="none" stroke-opacity="0.45098" stroke="#ffffff" stroke-width="0"/></g></g></svg>