<svg version="1.1" xmlns="http://www.w3.org/2000/svg" xmlns:xlink="http://www.w3.org/1999/xlink" width="222.57168" height="132.67556" viewBox="0,0,222.57168,132.67556"><g transform="translate(-131.16631,-114.79428)"><g fill="#060503" stroke="#060503" stroke-miterlimit="10"><path d="M131.66631,120.33259c0.01356,-0.9899 0.29945,-1.97035 0.64281,-2.5035c0.53554,-0.83155 1.52124,-1.30007 1.52124,-1.30007c0,0 2.09932,-0.70402 5.59367,-0.71387c5.52536,-0.01558 23.39241,-0.4408 46.45997,-0.52087c16.1206,-0.05595 34.78102,0.21876 53.54396,0.23183c23.24969,0.01619 46.6568,-0.22072 65.58409,-0.13629c24.10075,0.10752 40.93803,0.5392 40.93803,0.5392c0,0 3.80825,-0.10515 5.71312,1.01148c1.68885,0.99 1.55114,5.72471 1.55114,5.72471c0,0 0.05156,34.19117 0.02365,52.59886c-0.0308,20.31287 -0.0693,47.95096 -0.442,63.81628c-0.05684,2.41974 -0.05559,2.72431 -0.64327,4.12215c-0.28429,0.67621 -1.12119,1.16384 -1.6505,1.57914c-1.62349,1.2738 -5.71856,1.19849 -5.71856,1.19849c0,0 -3.96806,0.20833 -6.47565,0.29717c-3.51967,0.1247 -12.79335,0.38063 -12.79335,0.38063l-51.75968,0.2914l-89.30431,0.02051c0,0 -30.28027,-0.42174 -39.62686,-0.85037c-5.01157,-0.22983 -5.25619,-0.12789 -8.77849,-0.67528c-1.65941,-0.25788 -2.71884,-1.04567 -3.12946,-1.61001c-1.04452,-1.43555 -0.87351,-3.42556 -0.87351,-3.42556c0,0 -0.55648,-106.9085 -0.37605,-120.07603z"/></g></g></svg>