<svg version="1.1" xmlns="http://www.w3.org/2000/svg" xmlns:xlink="http://www.w3.org/1999/xlink" width="302.36433" height="259.49108" viewBox="0,0,302.36433,259.49108"><g transform="translate(-239.17031,-56.38188)"><g stroke-miterlimit="10"><path d="M539.64549,298.9621c0,0 -5.97547,0 -10.16009,0c-3.62488,0 -10.98847,0 -17.04272,0c-5.24333,0 -9.50459,0 -9.50459,0c0,0 0,-5.7924 0,-15.5c0,-44.2477 0,-169.83669 0,-199c0,-11.77065 0,-23.5 0,-23.5c0,0 2.59524,0 6.22715,0c6.39562,0 16.00591,0 20.32017,0c4.18462,0 10.16009,0 10.16009,0c0,0 0,10.04354 0,20.5c0,28.00919 0,157.04162 0,202c0,9.71146 0,15.5 0,15.5z" fill-opacity="0.02353" fill="#ffffff" stroke-opacity="0.45098" stroke="#ffffff" stroke-width="2"/><text transform="translate(535.0044,81.90101) rotate(89.92427) scale(9.08216,-0.50014) skewX(-1.37179)" font-size="40" xml:space="preserve" fill-opacity="0.45098" fill="#ffffff" stroke="none" stroke-width="1" font-family="Sans Serif" font-weight="normal" text-anchor="start"><tspan x="0" dy="0">v</tspan></text><text transform="translate(518.0044,74.11373) rotate(89.93017) scale(9.8497,-0.50014) skewX(-1.37241)" font-size="40" xml:space="preserve" fill-opacity="0.45098" fill="#ffffff" stroke="none" stroke-width="1" font-family="Sans Serif" font-weight="normal" text-anchor="start"><tspan x="0" dy="0">v</tspan></text><path d="M239.17032,180.82969v-1.65937h1.65937v1.65937z" fill="none" stroke-opacity="0.45098" stroke="#ffffff" stroke-width="0"/></g></g></svg>